<?xml version="1.0" standalone="no"?>
<!DOCTYPE svg PUBLIC "-//W3C//DTD SVG 20010904//EN"
 "http://www.w3.org/TR/2001/REC-SVG-20010904/DTD/svg10.dtd">
<svg version="1.0" xmlns="http://www.w3.org/2000/svg"
 width="558.000000pt" height="558.000000pt" viewBox="0 0 558.000000 558.000000"
 preserveAspectRatio="xMidYMid meet">
<metadata>
Created by potrace 1.14, written by Peter Selinger 2001-2017
</metadata>
<g transform="translate(0.000000,558.000000) scale(0.100000,-0.100000)"
fill="#000000" stroke="none">
<path d="M0 2790 l0 -2790 2790 0 2790 0 0 2790 0 2790 -2790 0 -2790 0 0
-2790z m3935 220 l0 -305 -40 0 c-34 0 -40 3 -43 23 l-3 22 -26 -20 c-78 -61
-188 -37 -235 53 -34 64 -32 194 2 262 45 89 145 119 220 65 l30 -21 0 116 0
116 48 -3 47 -3 0 -305z m-1005 253 c67 -27 110 -87 110 -153 0 -29 -2 -30
-43 -30 -42 0 -43 1 -55 45 -28 103 -171 114 -221 16 -30 -58 -30 -235 -1
-297 50 -102 194 -95 222 11 12 44 13 45 55 45 40 0 43 -2 43 -27 0 -35 -31
-102 -56 -125 -60 -53 -180 -66 -258 -29 -90 44 -126 121 -126 271 0 107 14
163 56 217 58 76 170 99 274 56z m431 -135 c78 -23 139 -116 139 -213 0 -145
-118 -245 -250 -211 -28 7 -62 24 -77 37 -81 75 -89 251 -14 333 31 34 95 65
135 66 16 0 46 -5 67 -12z m924 -7 c70 -32 104 -91 105 -183 l0 -48 -135 0
c-86 0 -135 -4 -135 -10 0 -6 6 -26 14 -45 27 -63 107 -81 186 -40 26 13 28
13 39 -11 16 -35 14 -41 -12 -59 -38 -24 -116 -35 -172 -23 -65 14 -128 74
-145 138 -51 187 100 352 255 281z m-438 -623 c8 -6 19 -20 24 -30 8 -14 6
-18 -9 -18 -11 0 -22 9 -25 20 -4 15 -14 20 -40 20 -38 0 -63 -21 -53 -45 3
-8 30 -26 61 -39 67 -30 87 -62 62 -100 -18 -27 -64 -41 -99 -31 -25 8 -68 44
-68 57 0 15 26 8 43 -13 13 -15 27 -19 55 -17 34 3 37 6 37 33 0 26 -6 31 -43
45 -56 21 -82 44 -82 73 0 24 21 49 50 60 20 8 70 0 87 -15z m-1067 2 c0 -5
-16 -10 -35 -10 l-35 0 0 -105 c0 -98 -1 -105 -20 -105 -19 0 -20 7 -20 105
l0 105 -35 0 c-19 0 -35 5 -35 10 0 6 37 10 90 10 53 0 90 -4 90 -10z m540 0
c0 -6 -27 -10 -60 -10 l-60 0 0 -40 0 -40 55 0 c30 0 55 -4 55 -10 0 -5 -25
-10 -55 -10 l-55 0 0 -45 0 -45 60 0 c33 0 60 -4 60 -10 0 -6 -33 -10 -80 -10
l-80 0 0 115 0 115 80 0 c47 0 80 -4 80 -10z m1120 0 c0 -5 -18 -10 -40 -10
l-40 0 0 -105 c0 -87 -3 -105 -15 -105 -12 0 -15 18 -15 105 l0 105 -40 0
c-22 0 -40 5 -40 10 0 6 38 10 95 10 57 0 95 -4 95 -10z"/>
<path d="M3713 3048 c-47 -22 -69 -150 -39 -222 23 -55 99 -68 145 -25 18 17
21 32 21 109 0 104 -3 116 -41 135 -32 17 -55 18 -86 3z"/>
<path d="M3240 3032 c-32 -32 -45 -91 -36 -157 24 -158 196 -124 196 38 0 123
-89 189 -160 119z"/>
<path d="M4167 3048 c-9 -7 -23 -30 -32 -50 l-15 -38 85 0 c84 0 85 0 85 25 0
55 -79 95 -123 63z"/>
</g>
</svg>
