<?xml version="1.0" encoding="utf-8"?><svg xmlns="http://www.w3.org/2000/svg" xmlns:xlink="http://www.w3.org/1999/xlink"><symbol viewBox="0 0 24 12" id="chevron-up-white" xmlns="http://www.w3.org/2000/svg"><path d="M12 0c.1 0 .2 0 .3.1.1 0 .2.1.2.2l11.2 10.3c.2.1.2.3.2.5s-.1.4-.2.6c-.2.1-.4.2-.6.2-.2 0-.4-.1-.6-.2L11.4 1.3c-.2-.2-.3-.3-.3-.5s.1-.4.3-.5c.1-.1.2-.1.2-.2.2-.1.3-.1.4-.1zm.3.1c.1 0 .2.1.2.2.2.2.3.3.3.5s-.1.4-.3.5L1.4 11.8c-.2.1-.4.2-.6.2s-.4-.1-.6-.2c-.1-.2-.2-.4-.2-.6 0-.2.1-.4.2-.5L11.4.2c.1-.1.2-.1.2-.2h.4c.1 0 .2 0 .3.1z"/></symbol><symbol viewBox="0 0 27 27" id="icon-close" xmlns="http://www.w3.org/2000/svg"><path d="M12.462 13.713l-3.076 3.285a.915.915 0 00.012 1.25.82.82 0 001.195-.013L13.5 15.13l2.907 3.105a.82.82 0 001.195.013.914.914 0 00.012-1.25l-3.076-3.285c0-.095-.008-.193-.022-.285l3.24-3.423a.914.914 0 00-.006-1.25.82.82 0 00-1.195.007L13.5 11.99l-3.055-3.23a.818.818 0 00-1.195-.006.915.915 0 00-.006 1.25l3.24 3.422c-.014.092-.023.19-.022.285z"/></symbol><symbol viewBox="0 0 22 20" id="icon-menu" xmlns="http://www.w3.org/2000/svg"><path d="M2 0C.9 0 0 .9 0 2s.9 2 2 2h18c1.1 0 2-.9 2-2s-.9-2-2-2H2zm0 8c-1.1 0-2 .9-2 2s.9 2 2 2h18c1.1 0 2-.9 2-2s-.9-2-2-2H2zm0 8c-1.1 0-2 .9-2 2s.9 2 2 2h18c1.1 0 2-.9 2-2s-.9-2-2-2H2z"/></symbol><symbol viewBox="0 0 10 10" id="icon-minus-grey" xmlns="http://www.w3.org/2000/svg"><path d="M5.7 4.3h4.2v1.4H.1V4.3h4.2"/></symbol><symbol viewBox="0 0 10 10" id="icon-plus-grey" xmlns="http://www.w3.org/2000/svg"><path d="M9.9 5.7H5.7v4.2H4.3V5.7H.1V4.3h4.2V.1h1.4v4.2h4.2v1.4z"/></symbol></svg>