<svg xmlns="http://www.w3.org/2000/svg" width="24px" height="12px" viewBox="0 0 24 12">
  <path d="M12,0c0.1,0,0.2,0,0.3,0.1c0.1,0,0.2,0.1,0.2,0.2l11.2,10.3c0.2,0.1,0.2,0.3,0.2,0.5 c0,0.2-0.1,0.4-0.2,0.6c-0.2,0.1-0.4,0.2-0.6,0.2c-0.2,0-0.4-0.1-0.6-0.2L11.4,1.3c-0.2-0.2-0.3-0.3-0.3-0.5s0.1-0.4,0.3-0.5 c0.1-0.1,0.2-0.1,0.2-0.2C11.8,0,11.9,0,12,0z M12.3,0.1c0.1,0,0.2,0.1,0.2,0.2c0.2,0.2,0.3,0.3,0.3,0.5s-0.1,0.4-0.3,0.5L1.4,11.8 C1.2,11.9,1,12,0.8,12s-0.4-0.1-0.6-0.2C0.1,11.6,0,11.4,0,11.2c0-0.2,0.1-0.4,0.2-0.5L11.4,0.2c0.1-0.1,0.2-0.1,0.2-0.2 C11.8,0,11.9,0,12,0C12.1,0,12.2,0,12.3,0.1z" />
</svg>